<svg width="872pt" height="1052pt" viewBox="0.00 0.00 872.08 1052.00" xmlns="http://www.w3.org/2000/svg" xmlns:xlink="http://www.w3.org/1999/xlink">
<g id="graph0" class="graph" transform="scale(1 1) rotate(0) translate(4 1048)">
<title>G</title>
<polygon fill="white" stroke="none" points="-4,4 -4,-1048 868.08,-1048 868.08,4 -4,4"/>
<!-- Resource -->
<g id="node1" class="node">
<title>Resource</title>
<ellipse fill="none" stroke="black" cx="476" cy="-1026" rx="46.97" ry="18"/>
<text text-anchor="middle" x="476" y="-1021.8" font-family="Times,serif" font-size="14.00">Resource</text>
</g>
<!-- Entry -->
<g id="node2" class="node">
<title>Entry</title>
<ellipse fill="none" stroke="black" cx="436" cy="-954" rx="32.49" ry="18"/>
<text text-anchor="middle" x="436" y="-949.8" font-family="Times,serif" font-size="14.00">Entry</text>
</g>
<!-- Resource&#45;&gt;Entry -->
<g id="edge1" class="edge">
<title>Resource-&gt;Entry</title>
<path fill="none" stroke="black" d="M466.32,-1008.05C461.73,-1000.03 456.15,-990.26 451.03,-981.3"/>
<polygon fill="black" stroke="black" points="454.07,-979.57 446.07,-972.62 447.99,-983.04 454.07,-979.57"/>
</g>
<!-- Junk -->
<g id="node3" class="node">
<title>Junk</title>
<ellipse fill="none" stroke="black" cx="516" cy="-954" rx="29.28" ry="18"/>
<text text-anchor="middle" x="516" y="-949.8" font-family="Times,serif" font-size="14.00">Junk</text>
</g>
<!-- Resource&#45;&gt;Junk -->
<g id="edge2" class="edge">
<title>Resource-&gt;Junk</title>
<path fill="none" stroke="black" d="M485.68,-1008.05C490.27,-1000.03 495.85,-990.26 500.97,-981.3"/>
<polygon fill="black" stroke="black" points="504.01,-983.04 505.93,-972.62 497.93,-979.57 504.01,-983.04"/>
</g>
<!-- Message -->
<g id="node4" class="node">
<title>Message</title>
<ellipse fill="none" stroke="black" cx="436" cy="-882" rx="44.83" ry="18"/>
<text text-anchor="middle" x="436" y="-877.8" font-family="Times,serif" font-size="14.00">Message</text>
</g>
<!-- Entry&#45;&gt;Message -->
<g id="edge3" class="edge">
<title>Entry-&gt;Message</title>
<path fill="none" stroke="black" d="M436,-935.7C436,-928.41 436,-919.73 436,-911.54"/>
<polygon fill="black" stroke="black" points="439.5,-911.62 436,-901.62 432.5,-911.62 439.5,-911.62"/>
</g>
<!-- Term -->
<g id="node5" class="node">
<title>Term</title>
<ellipse fill="none" stroke="black" cx="337" cy="-882" rx="31.95" ry="18"/>
<text text-anchor="middle" x="337" y="-877.8" font-family="Times,serif" font-size="14.00">Term</text>
</g>
<!-- Entry&#45;&gt;Term -->
<g id="edge4" class="edge">
<title>Entry-&gt;Term</title>
<path fill="none" stroke="black" d="M416.44,-939.17C401.84,-928.85 381.67,-914.58 365.3,-903.01"/>
<polygon fill="black" stroke="black" points="367.6,-900.35 357.42,-897.44 363.56,-906.07 367.6,-900.35"/>
</g>
<!-- CommentLine -->
<g id="node6" class="node">
<title>CommentLine</title>
<ellipse fill="none" stroke="black" cx="566" cy="-882" rx="66.82" ry="18"/>
<text text-anchor="middle" x="566" y="-877.8" font-family="Times,serif" font-size="14.00">CommentLine</text>
</g>
<!-- Entry&#45;&gt;CommentLine -->
<g id="edge5" class="edge">
<title>Entry-&gt;CommentLine</title>
<path fill="none" stroke="black" d="M458.64,-940.81C477.57,-930.62 504.98,-915.86 527.37,-903.8"/>
<polygon fill="black" stroke="black" points="528.77,-907.02 535.92,-899.2 525.45,-900.86 528.77,-907.02"/>
</g>
<!-- Identifier -->
<g id="node7" class="node">
<title>Identifier</title>
<ellipse fill="none" stroke="black" cx="360" cy="-18" rx="46.96" ry="18"/>
<text text-anchor="middle" x="360" y="-13.8" font-family="Times,serif" font-size="14.00">Identifier</text>
</g>
<!-- Message&#45;&gt;Identifier -->
<g id="edge6" class="edge">
<title>Message-&gt;Identifier</title>
<path fill="none" stroke="black" d="M469.59,-869.76C559.7,-839.36 800,-756.64 800,-739 800,-739 800,-739 800,-305 800,-203.81 727.14,-193.72 639,-144 580.79,-111.17 553.39,-136.63 493,-108 468.9,-96.58 467,-87.07 445,-72 428.64,-60.79 409.99,-49.06 394.34,-39.48"/>
<polygon fill="black" stroke="black" points="396.2,-36.52 385.83,-34.32 392.56,-42.5 396.2,-36.52"/>
</g>
<!-- Pattern -->
<g id="node8" class="node">
<title>Pattern</title>
<ellipse fill="none" stroke="black" cx="422" cy="-738" rx="38.39" ry="18"/>
<text text-anchor="middle" x="422" y="-733.8" font-family="Times,serif" font-size="14.00">Pattern</text>
</g>
<!-- Message&#45;&gt;Pattern -->
<g id="edge7" class="edge">
<title>Message-&gt;Pattern</title>
<path fill="none" stroke="black" d="M434.28,-863.59C431.92,-839.61 427.63,-796.14 424.8,-767.42"/>
<polygon fill="black" stroke="black" points="428.3,-767.23 423.84,-757.62 421.33,-767.91 428.3,-767.23"/>
</g>
<!-- Attribute -->
<g id="node9" class="node">
<title>Attribute</title>
<ellipse fill="none" stroke="black" cx="329" cy="-810" rx="45.9" ry="18"/>
<text text-anchor="middle" x="329" y="-805.8" font-family="Times,serif" font-size="14.00">Attribute</text>
</g>
<!-- Message&#45;&gt;Attribute -->
<g id="edge8" class="edge">
<title>Message-&gt;Attribute</title>
<path fill="none" stroke="black" d="M413.31,-866.15C398.13,-856.22 377.93,-843.01 361.11,-832.01"/>
<polygon fill="black" stroke="black" points="363.21,-829.2 352.93,-826.65 359.38,-835.06 363.21,-829.2"/>
</g>
<!-- Term&#45;&gt;Identifier -->
<g id="edge9" class="edge">
<title>Term-&gt;Identifier</title>
<path fill="none" stroke="black" d="M304.69,-881.83C220.34,-882.15 0,-870.42 0,-739 0,-739 0,-739 0,-161 0,-115.41 13.64,-98.12 51,-72 90.75,-44.21 224.93,-29.42 302.79,-23.01"/>
<polygon fill="black" stroke="black" points="302.65,-26.53 312.34,-22.24 302.09,-19.55 302.65,-26.53"/>
</g>
<!-- Term&#45;&gt;Pattern -->
<g id="edge10" class="edge">
<title>Term-&gt;Pattern</title>
<path fill="none" stroke="black" d="M352.4,-866.3C362.35,-856.21 375.05,-842.13 384,-828 396.15,-808.81 406.06,-785.08 412.71,-766.94"/>
<polygon fill="black" stroke="black" points="415.97,-768.22 416.01,-757.63 409.37,-765.89 415.97,-768.22"/>
</g>
<!-- Term&#45;&gt;Attribute -->
<g id="edge11" class="edge">
<title>Term-&gt;Attribute</title>
<path fill="none" stroke="black" d="M335.02,-863.7C334.19,-856.41 333.2,-847.73 332.26,-839.54"/>
<polygon fill="black" stroke="black" points="335.74,-839.15 331.13,-829.61 328.78,-839.94 335.74,-839.15"/>
</g>
<!-- PatternElement -->
<g id="node10" class="node">
<title>PatternElement</title>
<ellipse fill="none" stroke="black" cx="422" cy="-666" rx="70.57" ry="18"/>
<text text-anchor="middle" x="422" y="-661.8" font-family="Times,serif" font-size="14.00">PatternElement</text>
</g>
<!-- Pattern&#45;&gt;PatternElement -->
<g id="edge14" class="edge">
<title>Pattern-&gt;PatternElement</title>
<path fill="none" stroke="black" d="M422,-719.7C422,-712.41 422,-703.73 422,-695.54"/>
<polygon fill="black" stroke="black" points="425.5,-695.62 422,-685.62 418.5,-695.62 425.5,-695.62"/>
</g>
<!-- Attribute&#45;&gt;Identifier -->
<g id="edge12" class="edge">
<title>Attribute-&gt;Identifier</title>
<path fill="none" stroke="black" d="M283.21,-807.03C201.26,-800.77 38,-774.79 38,-667 38,-667 38,-667 38,-161 38,-47.19 208.5,-23.82 301.36,-19.54"/>
<polygon fill="black" stroke="black" points="301.47,-23.03 311.32,-19.14 301.19,-16.04 301.47,-23.03"/>
</g>
<!-- Attribute&#45;&gt;Pattern -->
<g id="edge13" class="edge">
<title>Attribute-&gt;Pattern</title>
<path fill="none" stroke="black" d="M349.64,-793.46C362.55,-783.75 379.35,-771.1 393.51,-760.44"/>
<polygon fill="black" stroke="black" points="395.28,-763.49 401.16,-754.68 391.07,-757.9 395.28,-763.49"/>
</g>
<!-- inline_text -->
<g id="node11" class="node">
<title>inline_text</title>
<ellipse fill="none" stroke="black" cx="382" cy="-594" rx="52.34" ry="18"/>
<text text-anchor="middle" x="382" y="-589.8" font-family="Times,serif" font-size="14.00">inline_text</text>
</g>
<!-- PatternElement&#45;&gt;inline_text -->
<g id="edge15" class="edge">
<title>PatternElement-&gt;inline_text</title>
<path fill="none" stroke="black" d="M412.11,-647.7C407.66,-639.9 402.29,-630.51 397.33,-621.83"/>
<polygon fill="black" stroke="black" points="400.53,-620.36 392.52,-613.42 394.45,-623.84 400.53,-620.36"/>
</g>
<!-- block_text -->
<g id="node12" class="node">
<title>block_text</title>
<ellipse fill="none" stroke="black" cx="260" cy="-594" rx="51.8" ry="18"/>
<text text-anchor="middle" x="260" y="-589.8" font-family="Times,serif" font-size="14.00">block_text</text>
</g>
<!-- PatternElement&#45;&gt;block_text -->
<g id="edge16" class="edge">
<title>PatternElement-&gt;block_text</title>
<path fill="none" stroke="black" d="M387.25,-649.98C362.32,-639.21 328.62,-624.65 302.16,-613.22"/>
<polygon fill="black" stroke="black" points="303.63,-610.04 293.06,-609.29 300.86,-616.47 303.63,-610.04"/>
</g>
<!-- inline_placeable -->
<g id="node13" class="node">
<title>inline_placeable</title>
<ellipse fill="none" stroke="black" cx="513" cy="-522" rx="74.31" ry="18"/>
<text text-anchor="middle" x="513" y="-517.8" font-family="Times,serif" font-size="14.00">inline_placeable</text>
</g>
<!-- PatternElement&#45;&gt;inline_placeable -->
<g id="edge17" class="edge">
<title>PatternElement-&gt;inline_placeable</title>
<path fill="none" stroke="black" d="M432.98,-647.87C448.62,-623.46 477.48,-578.43 495.93,-549.64"/>
<polygon fill="black" stroke="black" points="498.72,-551.77 501.17,-541.46 492.83,-547.99 498.72,-551.77"/>
</g>
<!-- block_placeable -->
<g id="node14" class="node">
<title>block_placeable</title>
<ellipse fill="none" stroke="black" cx="564" cy="-594" rx="73.77" ry="18"/>
<text text-anchor="middle" x="564" y="-589.8" font-family="Times,serif" font-size="14.00">block_placeable</text>
</g>
<!-- PatternElement&#45;&gt;block_placeable -->
<g id="edge18" class="edge">
<title>PatternElement-&gt;block_placeable</title>
<path fill="none" stroke="black" d="M453.51,-649.46C473.83,-639.45 500.47,-626.32 522.5,-615.46"/>
<polygon fill="black" stroke="black" points="523.79,-618.72 531.22,-611.16 520.7,-612.44 523.79,-618.72"/>
</g>
<!-- SelectExpression -->
<g id="node15" class="node">
<title>SelectExpression</title>
<ellipse fill="none" stroke="black" cx="628" cy="-450" rx="77.55" ry="18"/>
<text text-anchor="middle" x="628" y="-445.8" font-family="Times,serif" font-size="14.00">SelectExpression</text>
</g>
<!-- inline_placeable&#45;&gt;SelectExpression -->
<g id="edge19" class="edge">
<title>inline_placeable-&gt;SelectExpression</title>
<path fill="none" stroke="black" d="M539.67,-504.76C555.2,-495.31 574.99,-483.26 591.9,-472.97"/>
<polygon fill="black" stroke="black" points="593.46,-476.12 600.18,-467.93 589.82,-470.14 593.46,-476.12"/>
</g>
<!-- InlineExpression -->
<g id="node16" class="node">
<title>InlineExpression</title>
<ellipse fill="none" stroke="black" cx="527" cy="-378" rx="76.48" ry="18"/>
<text text-anchor="middle" x="527" y="-373.8" font-family="Times,serif" font-size="14.00">InlineExpression</text>
</g>
<!-- inline_placeable&#45;&gt;InlineExpression -->
<g id="edge20" class="edge">
<title>inline_placeable-&gt;InlineExpression</title>
<path fill="none" stroke="black" d="M510.1,-503.59C509.97,-479.61 513.95,-436.14 518.67,-407.42"/>
<polygon fill="black" stroke="black" points="522.11,-408.07 520.46,-397.6 515.22,-406.81 522.11,-408.07"/>
</g>
<!-- block_placeable&#45;&gt;inline_placeable -->
<g id="edge21" class="edge">
<title>block_placeable-&gt;inline_placeable</title>
<path fill="none" stroke="black" d="M551.65,-576.05C545.7,-567.89 538.44,-557.91 531.81,-548.82"/>
<polygon fill="black" stroke="black" points="534.84,-547.03 526.12,-541.01 529.18,-551.16 534.84,-547.03"/>
</g>
<!-- SelectExpression&#45;&gt;InlineExpression -->
<g id="edge44" class="edge">
<title>SelectExpression-&gt;InlineExpression</title>
<path fill="none" stroke="black" d="M604.06,-432.41C590.86,-423.26 574.26,-411.76 559.86,-401.77"/>
<polygon fill="black" stroke="black" points="562.22,-399.15 552.01,-396.33 558.23,-404.91 562.22,-399.15"/>
</g>
<!-- Variant_ -->
<g id="node27" class="node">
<title>Variant_</title>
<ellipse fill="none" stroke="black" cx="727" cy="-378" rx="44.82" ry="18"/>
<text text-anchor="middle" x="727" y="-373.8" font-family="Times,serif" font-size="14.00">Variant_</text>
</g>
<!-- SelectExpression&#45;&gt;Variant_ -->
<g id="edge45" class="edge">
<title>SelectExpression-&gt;Variant_</title>
<path fill="none" stroke="black" d="M651.46,-432.41C664.97,-422.86 682.1,-410.75 696.62,-400.48"/>
<polygon fill="black" stroke="black" points="698.35,-403.54 704.5,-394.91 694.31,-397.83 698.35,-403.54"/>
</g>
<!-- InlineExpression&#45;&gt;inline_placeable -->
<g id="edge28" class="edge">
<title>InlineExpression-&gt;inline_placeable</title>
<path fill="none" stroke="black" d="M529.9,-396.11C530.07,-420.03 526.07,-463.76 521.33,-492.6"/>
<polygon fill="black" stroke="black" points="517.94,-491.63 519.6,-502.1 524.83,-492.89 517.94,-491.63"/>
</g>
<!-- StringLiteral -->
<g id="node17" class="node">
<title>StringLiteral</title>
<ellipse fill="none" stroke="black" cx="580" cy="-18" rx="60.38" ry="18"/>
<text text-anchor="middle" x="580" y="-13.8" font-family="Times,serif" font-size="14.00">StringLiteral</text>
</g>
<!-- InlineExpression&#45;&gt;StringLiteral -->
<g id="edge22" class="edge">
<title>InlineExpression-&gt;StringLiteral</title>
<path fill="none" stroke="black" d="M577.97,-364.16C601.76,-355.99 628.95,-343.22 648,-324 678.27,-293.45 686,-278.01 686,-235 686,-235 686,-235 686,-161 686,-120.55 690.4,-104.99 667,-72 656.68,-57.45 640.97,-46.13 625.74,-37.76"/>
<polygon fill="black" stroke="black" points="627.7,-34.83 617.2,-33.38 624.5,-41.06 627.7,-34.83"/>
</g>
<!-- NumberLiteral -->
<g id="node18" class="node">
<title>NumberLiteral</title>
<ellipse fill="none" stroke="black" cx="727" cy="-18" rx="68.42" ry="18"/>
<text text-anchor="middle" x="727" y="-13.8" font-family="Times,serif" font-size="14.00">NumberLiteral</text>
</g>
<!-- InlineExpression&#45;&gt;NumberLiteral -->
<g id="edge23" class="edge">
<title>InlineExpression-&gt;NumberLiteral</title>
<path fill="none" stroke="black" d="M586.57,-366.37C616.12,-358.65 650.78,-345.63 676,-324 710.11,-294.74 724,-279.94 724,-235 724,-235 724,-235 724,-161 724,-121.73 725.16,-76.37 726.04,-47.69"/>
<polygon fill="black" stroke="black" points="729.53,-48.1 726.35,-38 722.53,-47.88 729.53,-48.1"/>
</g>
<!-- FunctionReference -->
<g id="node19" class="node">
<title>FunctionReference</title>
<ellipse fill="none" stroke="black" cx="535" cy="-306" rx="84.51" ry="18"/>
<text text-anchor="middle" x="535" y="-301.8" font-family="Times,serif" font-size="14.00">FunctionReference</text>
</g>
<!-- InlineExpression&#45;&gt;FunctionReference -->
<g id="edge24" class="edge">
<title>InlineExpression-&gt;FunctionReference</title>
<path fill="none" stroke="black" d="M528.98,-359.7C529.81,-352.41 530.8,-343.73 531.74,-335.54"/>
<polygon fill="black" stroke="black" points="535.22,-335.94 532.87,-325.61 528.26,-335.15 535.22,-335.94"/>
</g>
<!-- MessageReference -->
<g id="node20" class="node">
<title>MessageReference</title>
<ellipse fill="none" stroke="black" cx="188" cy="-306" rx="83.96" ry="18"/>
<text text-anchor="middle" x="188" y="-301.8" font-family="Times,serif" font-size="14.00">MessageReference</text>
</g>
<!-- InlineExpression&#45;&gt;MessageReference -->
<g id="edge25" class="edge">
<title>InlineExpression-&gt;MessageReference</title>
<path fill="none" stroke="black" d="M471.02,-365.44C412.65,-353.39 321.05,-334.47 257.95,-321.44"/>
<polygon fill="black" stroke="black" points="258.89,-318.07 248.39,-319.47 257.48,-324.92 258.89,-318.07"/>
</g>
<!-- TermReference -->
<g id="node21" class="node">
<title>TermReference</title>
<ellipse fill="none" stroke="black" cx="361" cy="-306" rx="71.08" ry="18"/>
<text text-anchor="middle" x="361" y="-301.8" font-family="Times,serif" font-size="14.00">TermReference</text>
</g>
<!-- InlineExpression&#45;&gt;TermReference -->
<g id="edge26" class="edge">
<title>InlineExpression-&gt;TermReference</title>
<path fill="none" stroke="black" d="M490.98,-361.81C466.42,-351.46 433.69,-337.65 407.21,-326.49"/>
<polygon fill="black" stroke="black" points="408.63,-323.29 398.06,-322.63 405.91,-329.74 408.63,-323.29"/>
</g>
<!-- VariableReference -->
<g id="node22" class="node">
<title>VariableReference</title>
<ellipse fill="none" stroke="black" cx="149" cy="-162" rx="83.41" ry="18"/>
<text text-anchor="middle" x="149" y="-157.8" font-family="Times,serif" font-size="14.00">VariableReference</text>
</g>
<!-- InlineExpression&#45;&gt;VariableReference -->
<g id="edge27" class="edge">
<title>InlineExpression-&gt;VariableReference</title>
<path fill="none" stroke="black" d="M452.99,-373.18C335.78,-366.37 118.28,-350.31 95,-324 60.39,-284.88 99.55,-222.8 126.95,-188.27"/>
<polygon fill="black" stroke="black" points="129.37,-190.84 132.99,-180.88 123.95,-186.41 129.37,-190.84"/>
</g>
<!-- FunctionReference&#45;&gt;Identifier -->
<g id="edge29" class="edge">
<title>FunctionReference-&gt;Identifier</title>
<path fill="none" stroke="black" d="M545.21,-287.77C554.66,-269.46 565.87,-239.92 556,-216 555.43,-214.61 436.83,-95.87 384.42,-43.43"/>
<polygon fill="black" stroke="black" points="386.93,-40.99 377.39,-36.39 381.98,-45.94 386.93,-40.99"/>
</g>
<!-- CallArguments -->
<g id="node23" class="node">
<title>CallArguments</title>
<ellipse fill="none" stroke="black" cx="477" cy="-234" rx="70.04" ry="18"/>
<text text-anchor="middle" x="477" y="-229.8" font-family="Times,serif" font-size="14.00">CallArguments</text>
</g>
<!-- FunctionReference&#45;&gt;CallArguments -->
<g id="edge30" class="edge">
<title>FunctionReference-&gt;CallArguments</title>
<path fill="none" stroke="black" d="M520.96,-288.05C514.12,-279.8 505.75,-269.7 498.16,-260.54"/>
<polygon fill="black" stroke="black" points="500.95,-258.42 491.88,-252.95 495.56,-262.89 500.95,-258.42"/>
</g>
<!-- MessageReference&#45;&gt;Identifier -->
<g id="edge31" class="edge">
<title>MessageReference-&gt;Identifier</title>
<path fill="none" stroke="black" d="M180.87,-287.68C174.3,-268.78 167.31,-238.23 180,-216 195.61,-188.66 217.74,-201.21 241,-180 284.76,-140.11 283.55,-119.42 319,-72 325.75,-62.97 333.27,-53.18 340,-44.5"/>
<polygon fill="black" stroke="black" points="342.62,-46.84 346,-36.8 337.1,-42.53 342.62,-46.84"/>
</g>
<!-- AttributeAccessor -->
<g id="node24" class="node">
<title>AttributeAccessor</title>
<ellipse fill="none" stroke="black" cx="270" cy="-234" rx="81.29" ry="18"/>
<text text-anchor="middle" x="270" y="-229.8" font-family="Times,serif" font-size="14.00">AttributeAccessor</text>
</g>
<!-- MessageReference&#45;&gt;AttributeAccessor -->
<g id="edge32" class="edge">
<title>MessageReference-&gt;AttributeAccessor</title>
<path fill="none" stroke="black" d="M207.85,-288.05C218.02,-279.37 230.59,-268.64 241.75,-259.11"/>
<polygon fill="black" stroke="black" points="243.85,-261.93 249.18,-252.77 239.3,-256.6 243.85,-261.93"/>
</g>
<!-- TermReference&#45;&gt;Identifier -->
<g id="edge33" class="edge">
<title>TermReference-&gt;Identifier</title>
<path fill="none" stroke="black" d="M360.94,-287.54C360.77,-239.76 360.31,-106.51 360.1,-47.61"/>
<polygon fill="black" stroke="black" points="363.6,-47.73 360.07,-37.75 356.6,-47.76 363.6,-47.73"/>
</g>
<!-- TermReference&#45;&gt;CallArguments -->
<g id="edge35" class="edge">
<title>TermReference-&gt;CallArguments</title>
<path fill="none" stroke="black" d="M387.61,-288.94C403.38,-279.43 423.58,-267.24 440.78,-256.86"/>
<polygon fill="black" stroke="black" points="442.46,-259.93 449.22,-251.77 438.84,-253.94 442.46,-259.93"/>
</g>
<!-- TermReference&#45;&gt;AttributeAccessor -->
<g id="edge34" class="edge">
<title>TermReference-&gt;AttributeAccessor</title>
<path fill="none" stroke="black" d="M339.43,-288.41C327.85,-279.5 313.36,-268.36 300.63,-258.56"/>
<polygon fill="black" stroke="black" points="302.99,-255.96 292.93,-252.64 298.72,-261.51 302.99,-255.96"/>
</g>
<!-- VariableReference&#45;&gt;Identifier -->
<g id="edge36" class="edge">
<title>VariableReference-&gt;Identifier</title>
<path fill="none" stroke="black" d="M164.51,-143.89C182.65,-124.61 214.26,-93.2 246,-72 267.92,-57.36 294.52,-44.74 316.51,-35.49"/>
<polygon fill="black" stroke="black" points="317.57,-38.84 325.5,-31.81 314.92,-32.37 317.57,-38.84"/>
</g>
<!-- Argument -->
<g id="node25" class="node">
<title>Argument</title>
<ellipse fill="none" stroke="black" cx="580" cy="-162" rx="50.19" ry="18"/>
<text text-anchor="middle" x="580" y="-157.8" font-family="Times,serif" font-size="14.00">Argument</text>
</g>
<!-- CallArguments&#45;&gt;Argument -->
<g id="edge38" class="edge">
<title>CallArguments-&gt;Argument</title>
<path fill="none" stroke="black" d="M500.89,-216.76C514.96,-207.2 532.95,-194.98 548.21,-184.61"/>
<polygon fill="black" stroke="black" points="549.75,-187.79 556.05,-179.28 545.81,-182 549.75,-187.79"/>
</g>
<!-- AttributeAccessor&#45;&gt;Identifier -->
<g id="edge37" class="edge">
<title>AttributeAccessor-&gt;Identifier</title>
<path fill="none" stroke="black" d="M277.21,-215.85C292.75,-178.91 329.49,-91.55 348.36,-46.67"/>
<polygon fill="black" stroke="black" points="351.52,-48.2 352.17,-37.63 345.06,-45.49 351.52,-48.2"/>
</g>
<!-- Argument&#45;&gt;InlineExpression -->
<g id="edge40" class="edge">
<title>Argument-&gt;InlineExpression</title>
<path fill="none" stroke="black" d="M593.48,-179.64C616.43,-210.16 657.97,-276.3 629,-324 619.35,-339.89 603.21,-351.23 586.59,-359.24"/>
<polygon fill="black" stroke="black" points="585.36,-355.96 577.62,-363.19 588.18,-362.36 585.36,-355.96"/>
</g>
<!-- NamedArgument -->
<g id="node26" class="node">
<title>NamedArgument</title>
<ellipse fill="none" stroke="black" cx="580" cy="-90" rx="78.08" ry="18"/>
<text text-anchor="middle" x="580" y="-85.8" font-family="Times,serif" font-size="14.00">NamedArgument</text>
</g>
<!-- Argument&#45;&gt;NamedArgument -->
<g id="edge39" class="edge">
<title>Argument-&gt;NamedArgument</title>
<path fill="none" stroke="black" d="M580,-143.7C580,-136.41 580,-127.73 580,-119.54"/>
<polygon fill="black" stroke="black" points="583.5,-119.62 580,-109.62 576.5,-119.62 583.5,-119.62"/>
</g>
<!-- NamedArgument&#45;&gt;Identifier -->
<g id="edge41" class="edge">
<title>NamedArgument-&gt;Identifier</title>
<path fill="none" stroke="black" d="M535.48,-74.83C497.88,-62.87 444.24,-45.8 406.18,-33.69"/>
<polygon fill="black" stroke="black" points="407.43,-30.42 396.84,-30.72 405.31,-37.09 407.43,-30.42"/>
</g>
<!-- NamedArgument&#45;&gt;StringLiteral -->
<g id="edge42" class="edge">
<title>NamedArgument-&gt;StringLiteral</title>
<path fill="none" stroke="black" d="M580,-71.7C580,-64.41 580,-55.73 580,-47.54"/>
<polygon fill="black" stroke="black" points="583.5,-47.62 580,-37.62 576.5,-47.62 583.5,-47.62"/>
</g>
<!-- NamedArgument&#45;&gt;NumberLiteral -->
<g id="edge43" class="edge">
<title>NamedArgument-&gt;NumberLiteral</title>
<path fill="none" stroke="black" d="M612.99,-73.29C634.2,-63.19 661.97,-49.97 684.78,-39.1"/>
<polygon fill="black" stroke="black" points="685.99,-42.41 693.51,-34.95 682.98,-36.09 685.99,-42.41"/>
</g>
<!-- Variant_&#45;&gt;Pattern -->
<g id="edge47" class="edge">
<title>Variant_-&gt;Pattern</title>
<path fill="none" stroke="black" d="M728.42,-396.48C730.46,-423.26 734,-476.08 734,-521 734,-595 734,-595 734,-595 734,-708.77 560.02,-731.81 471.9,-736.18"/>
<polygon fill="black" stroke="black" points="471.92,-732.68 462.08,-736.6 472.22,-739.67 471.92,-732.68"/>
</g>
<!-- VariantKey -->
<g id="node28" class="node">
<title>VariantKey</title>
<ellipse fill="none" stroke="black" cx="808" cy="-90" rx="56.08" ry="18"/>
<text text-anchor="middle" x="808" y="-85.8" font-family="Times,serif" font-size="14.00">VariantKey</text>
</g>
<!-- Variant_&#45;&gt;VariantKey -->
<g id="edge46" class="edge">
<title>Variant_-&gt;VariantKey</title>
<path fill="none" stroke="black" d="M731.82,-359.97C745.27,-312.49 783.27,-178.31 799.97,-119.36"/>
<polygon fill="black" stroke="black" points="803.33,-120.34 802.69,-109.76 796.59,-118.43 803.33,-120.34"/>
</g>
<!-- VariantKey&#45;&gt;Identifier -->
<g id="edge49" class="edge">
<title>VariantKey-&gt;Identifier</title>
<path fill="none" stroke="black" d="M758.34,-81.24C673.64,-68.01 501.89,-41.17 414.19,-27.47"/>
<polygon fill="black" stroke="black" points="414.82,-24.02 404.4,-25.94 413.74,-30.94 414.82,-24.02"/>
</g>
<!-- VariantKey&#45;&gt;NumberLiteral -->
<g id="edge48" class="edge">
<title>VariantKey-&gt;NumberLiteral</title>
<path fill="none" stroke="black" d="M789.21,-72.76C779.04,-63.97 766.26,-52.93 754.94,-43.14"/>
<polygon fill="black" stroke="black" points="757.25,-40.51 747.39,-36.62 752.67,-45.81 757.25,-40.51"/>
</g>
</g>
</svg>
